<?xml version="1.0" standalone="no"?>
<!DOCTYPE svg PUBLIC "-//W3C//DTD SVG 20010904//EN"
 "http://www.w3.org/TR/2001/REC-SVG-20010904/DTD/svg10.dtd">
<svg version="1.0" xmlns="http://www.w3.org/2000/svg"
 width="1024.000000pt" height="1024.000000pt" viewBox="0 0 1024.000000 1024.000000"
 preserveAspectRatio="xMidYMid meet">

<g transform="translate(0.000000,1024.000000) scale(0.100000,-0.100000)"
fill="#000000" stroke="none">
<path d="M3045 8173 c-192 -5 -523 -24 -595 -34 -109 -14 -203 -45 -237 -76
-16 -16 -61 -82 -100 -148 -40 -66 -130 -201 -202 -300 -71 -99 -200 -279
-287 -400 -269 -377 -322 -444 -479 -600 -176 -176 -191 -201 -270 -437 -77
-234 -87 -254 -130 -262 -19 -4 -47 -18 -62 -31 l-28 -23 -7 -219 c-4 -120 -4
-603 -1 -1073 l6 -854 23 -23 c27 -27 69 -30 118 -9 39 16 48 28 56 76 5 34 6
33 71 -87 l67 -123 -297 -98 -296 -98 0 -114 0 -115 122 -3 123 -3 2 -527 3
-527 168 -3 167 -2 0 263 0 263 33 16 c18 9 70 50 115 93 l82 77 2 -189 3
-188 159 0 159 0 -2 268 -2 267 121 0 122 0 -3 -422 c-2 -233 0 -429 4 -436
11 -16 88 -16 111 1 9 7 21 30 26 52 5 22 10 212 10 423 l0 382 44 0 45 0 3
-311 3 -311 28 -24 c49 -42 106 -25 131 38 13 32 16 89 16 323 l0 285 3255 0
c3005 0 3258 -1 3288 -16 36 -19 98 -64 109 -79 4 -5 8 -99 8 -207 l0 -198
159 0 c181 0 171 -5 171 91 0 48 3 59 16 59 15 0 16 -23 13 -242 l-4 -243 169
-3 c129 -2 171 1 178 10 4 7 8 239 8 515 l0 502 142 3 142 3 1 129 0 129 -355
116 -355 115 -349 6 -350 5 -77 130 -78 130 29 345 c16 190 30 373 30 408 0
63 0 63 -36 78 -71 30 -124 -4 -131 -83 -2 -27 -19 -259 -39 -518 -19 -258
-37 -476 -39 -483 -5 -13 -200 -18 -208 -4 -3 4 10 196 29 427 51 654 50 617
26 638 -31 28 -92 33 -121 10 -22 -18 -24 -32 -46 -293 -13 -151 -31 -369 -39
-485 -9 -115 -19 -229 -22 -252 l-5 -43 -274 0 c-271 0 -274 0 -280 21 -11 33
-84 108 -127 130 -21 11 -85 31 -143 45 -58 14 -144 44 -192 66 l-86 42 -146
2 c-85 1 -167 7 -196 15 -48 14 -50 15 -67 72 -9 31 -29 135 -43 230 -24 162
-57 344 -71 395 -5 19 -3 22 20 22 106 0 195 68 255 193 35 75 44 85 90 111
68 36 86 64 77 119 -4 23 -9 71 -10 106 -4 62 -3 65 35 106 69 75 42 124 -85
156 -44 10 -98 30 -120 43 -57 33 -162 131 -229 214 l-57 69 50 120 c64 155
83 237 78 333 -6 102 -31 145 -182 313 -112 124 -127 145 -166 234 -69 159
-117 244 -172 307 -81 91 -257 246 -428 376 -85 64 -211 166 -280 225 -167
145 -277 215 -430 274 -475 185 -770 225 -1485 204z m-155 -618 c52 -9 163
-29 245 -45 83 -16 220 -36 305 -45 273 -27 310 -41 396 -146 112 -137 227
-226 350 -271 49 -18 88 -23 239 -27 164 -6 184 -8 230 -31 85 -41 284 -256
364 -391 11 -19 27 -67 35 -106 32 -155 301 -711 421 -871 44 -59 45 -61 45
-138 1 -44 7 -126 14 -184 7 -58 11 -108 9 -112 -2 -5 -13 -8 -23 -8 -33 0
-148 -46 -186 -75 -40 -31 -37 -24 -95 -203 -32 -103 -43 -152 -44 -210 -1
-43 -6 -113 -10 -156 -6 -59 -5 -77 3 -72 7 4 12 19 12 34 0 15 4 34 10 42 7
11 11 9 19 -13 29 -75 30 -178 5 -332 -8 -50 6 -39 28 23 15 42 16 44 17 17 0
-16 -6 -59 -14 -95 -25 -115 -14 -135 20 -36 11 31 22 56 25 56 9 0 30 -118
30 -166 1 -38 23 -83 33 -67 3 4 8 25 12 46 4 20 11 37 15 37 10 0 20 -26 20
-51 0 -10 4 -19 8 -19 4 0 5 25 2 56 -4 32 -3 73 0 93 l7 36 10 -40 c6 -22 15
-55 18 -74 7 -34 8 -34 20 -12 12 23 12 22 28 -18 19 -46 33 -55 22 -13 -12
45 -23 276 -15 292 8 15 15 -7 40 -123 6 -31 16 -55 21 -51 9 5 5 167 -7 259
-4 36 -3 38 10 25 9 -9 24 -47 33 -85 l18 -70 4 45 c5 67 -28 304 -55 396 -13
45 -24 93 -24 107 0 14 -14 55 -31 91 -38 82 -37 143 4 183 32 32 43 25 51
-34 3 -27 15 -82 26 -123 11 -41 27 -136 35 -210 8 -82 27 -178 46 -245 40
-138 137 -399 189 -507 l41 -83 -208 -6 c-114 -3 -398 -7 -631 -8 l-424 -1 3
238 c3 213 1 241 -15 272 -36 68 -89 110 -141 110 -26 0 -77 -41 -86 -69 -4
-11 -15 -8 -50 12 -60 36 -99 35 -142 -3 -42 -37 -60 -93 -55 -179 l3 -66 -42
-3 -43 -3 0 -169 c0 -94 -4 -171 -9 -175 -5 -3 -54 -19 -108 -36 -77 -25 -130
-34 -248 -43 l-150 -11 -59 -42 -59 -43 -854 0 -854 0 -17 31 c-66 121 -245
430 -293 506 l-59 92 0 710 c0 470 -4 727 -11 760 -16 76 -48 105 -144 126
-44 10 -84 22 -88 25 -9 8 142 150 204 191 22 15 96 46 164 69 68 23 139 51
157 64 36 24 38 36 23 172 -6 51 -4 67 15 105 32 61 162 193 310 312 197 159
256 214 320 298 109 145 149 236 173 390 l13 84 44 12 c64 16 219 15 330 -2z
m-1846 -1552 c-18 -82 -36 -124 -52 -119 -10 2 -29 7 -44 10 -28 6 -36 28 -20
53 8 13 103 80 115 82 4 1 5 -11 1 -26z m-34 -359 c75 -14 143 -29 151 -34 12
-8 15 -135 19 -858 4 -686 8 -852 18 -865 8 -9 29 -21 47 -27 44 -15 97 7 124
50 l19 31 79 -138 c88 -152 103 -179 103 -188 0 -3 -97 -4 -216 -3 l-216 3
-144 250 -143 250 -1 778 c0 603 3 777 12 777 7 0 73 -12 148 -26z"/>
</g>
</svg>
